<svg xmlns="http://www.w3.org/2000/svg" xmlns:xlink="http://www.w3.org/1999/xlink" version="1.1" id="Layer_1" x="0px" y="0px" width="100px" height="100px" viewBox="0 0 100 100" enable-background="new 0 0 100 100" xml:space="preserve">
<path fill-rule="evenodd" clip-rule="evenodd" d="M49.904,10.742c-13.439,0-24.332,2.723-24.332,6.082s10.893,6.084,24.332,6.084  c13.438,0,24.33-2.725,24.33-6.084S63.342,10.742,49.904,10.742z M49.904,22.471c-10.803,0-21.736-1.939-21.736-5.646  c0.002-7.408,43.469-7.408,43.469,0C71.637,20.531,60.703,22.471,49.904,22.471z"/>
<path fill-rule="evenodd" clip-rule="evenodd" d="M49.896,75.355c-10.855-0.027-20.174-1.674-24.316-4.016v13.547  c-0.008,3.361,10.879,6.111,24.316,6.145c13.439,0.033,24.336-2.662,24.346-6.023V71.455C70.09,73.777,60.76,75.383,49.896,75.355z"/>
<g>
	<path fill-rule="evenodd" clip-rule="evenodd" d="M49.896,72.096c10.863,0.025,20.193-1.578,24.346-3.9V39.416   c-4.152,2.32-13.482,3.926-24.346,3.898c-10.855-0.025-20.174-1.676-24.316-4.016V68.08C29.723,70.418,39.041,72.066,49.896,72.096   z"/>
	<path fill-rule="evenodd" clip-rule="evenodd" d="M49.896,72.475c-10.855-0.023-20.174-1.674-24.316-4.016v0.816   c4.143,2.342,13.461,3.992,24.316,4.016c10.863,0.029,20.193-1.578,24.346-3.898v-0.816C70.09,70.896,60.76,72.504,49.896,72.475z"/>
</g>
<g>
	<path fill-rule="evenodd" clip-rule="evenodd" d="M49.896,40.148c10.863,0.027,20.193-1.578,24.346-3.9V18.822   c-0.01,3.359-10.906,6.057-24.346,6.023c-13.438-0.033-24.324-2.783-24.316-6.143v17.43C29.723,38.473,39.041,40.121,49.896,40.148   z"/>
	<path fill-rule="evenodd" clip-rule="evenodd" d="M49.896,40.529c-10.855-0.025-20.174-1.676-24.316-4.016v0.723   c4.143,2.34,13.461,3.988,24.316,4.016c10.863,0.027,20.193-1.578,24.346-3.9v-0.721C70.09,38.951,60.76,40.557,49.896,40.529z"/>
</g>
<path fill-rule="evenodd" clip-rule="evenodd" d="M70.1,16.824c0,1.676-7.869,4.109-20.195,4.109  c-12.332,0-20.199-2.434-20.199-4.109s7.867-4.107,20.199-4.107C62.23,12.717,70.1,15.148,70.1,16.824z M32.82,16.072  c-0.965,0-1.746,0.346-1.746,0.773c0,0.426,0.781,0.77,1.746,0.77s1.746-0.344,1.746-0.77C34.566,16.418,33.785,16.072,32.82,16.072  z"/>
</svg>